<svg id="svg" version="1.1" width="400" height="144.78527607361963" viewBox="0 0 400 144.78527607361963" xmlns="http://www.w3.org/2000/svg" xmlns:xlink="http://www.w3.org/1999/xlink" ><g id="svgg"><path id="path0" d="M16.244 8.875 C 16.200 8.990,16.184 37.658,16.207 72.583 L 16.250 136.083 38.167 136.083 L 60.083 136.083 60.126 122.625 L 60.169 109.167 89.397 109.167 C 113.844 109.167,118.657 109.130,118.814 108.940 C 118.953 108.773,118.991 99.218,118.959 72.509 L 118.917 36.304 118.523 35.985 C 118.256 35.769,117.869 35.667,117.315 35.667 L 116.500 35.667 116.500 35.021 C 116.500 33.446,116.415 33.333,115.229 33.333 L 114.167 33.333 114.167 32.449 C 114.167 31.212,113.932 30.957,112.708 30.869 L 111.704 30.796 111.633 29.812 C 111.544 28.589,111.411 28.456,110.188 28.367 L 109.204 28.296 109.131 27.292 C 109.043 26.068,108.788 25.833,107.551 25.833 L 106.667 25.833 106.667 24.829 C 106.667 23.682,106.452 23.500,105.093 23.500 L 104.373 23.500 104.301 22.498 C 104.211 21.254,104.081 21.123,102.854 21.034 L 101.871 20.963 101.800 19.979 C 101.711 18.752,101.579 18.622,100.336 18.532 L 99.333 18.460 99.333 17.741 C 99.333 16.382,99.152 16.167,98.004 16.167 L 97.000 16.167 97.000 15.282 C 97.000 14.045,96.765 13.790,95.541 13.702 L 94.537 13.629 94.466 12.646 C 94.378 11.422,94.245 11.289,93.021 11.200 L 92.037 11.129 91.965 10.126 C 91.912 9.396,91.807 9.060,91.581 8.894 C 91.139 8.571,16.366 8.552,16.244 8.875 M185.601 8.930 C 185.546 9.075,185.500 9.629,185.500 10.160 L 185.500 11.125 184.575 11.202 C 183.182 11.318,183.103 11.457,183.002 13.962 L 182.917 16.083 181.750 16.167 L 180.583 16.250 180.534 17.357 L 180.486 18.464 179.701 18.582 C 178.207 18.806,178.002 19.202,178.001 21.875 L 178.000 23.500 177.020 23.500 C 175.828 23.500,175.701 23.631,175.634 24.922 L 175.583 25.917 175.000 25.963 C 173.614 26.075,173.343 26.540,173.211 29.038 L 173.117 30.833 172.154 30.833 C 170.894 30.833,170.667 31.060,170.667 32.316 L 170.667 33.275 169.888 33.512 C 168.675 33.883,168.437 34.335,168.360 36.424 L 168.296 38.167 167.324 38.167 C 166.080 38.167,165.833 38.462,165.833 39.954 C 165.833 40.758,165.777 41.000,165.591 41.000 C 165.036 41.000,164.500 41.423,164.137 42.146 C 163.924 42.570,163.656 42.977,163.542 43.050 C 163.408 43.135,163.333 43.593,163.333 44.321 L 163.333 45.459 162.408 45.535 C 161.115 45.643,160.953 45.857,160.833 47.623 C 160.724 49.227,159.992 50.385,159.000 50.525 C 158.608 50.580,158.580 50.651,158.534 51.708 L 158.485 52.833 157.934 52.833 C 156.305 52.833,156.002 53.349,156.001 56.125 L 156.000 57.833 155.014 57.833 C 153.540 57.833,153.500 57.867,153.500 59.091 L 153.500 60.146 152.744 60.260 C 151.327 60.472,151.011 61.098,151.004 63.708 L 151.000 65.167 150.006 65.167 C 148.822 65.167,148.667 65.346,148.667 66.717 L 148.667 67.623 147.959 67.718 C 146.718 67.884,146.167 69.025,146.167 71.425 L 146.167 72.500 145.250 72.500 C 143.987 72.500,143.667 72.832,143.667 74.140 L 143.667 75.114 143.027 75.306 C 141.879 75.649,141.333 76.740,141.333 78.688 L 141.333 79.833 140.449 79.833 C 139.119 79.833,138.932 80.044,138.860 81.629 C 138.800 82.948,138.798 82.955,138.238 83.222 C 137.885 83.391,137.586 83.705,137.435 84.065 C 137.275 84.449,137.066 84.658,136.806 84.695 C 136.445 84.746,136.413 84.837,136.368 85.936 L 136.320 87.121 135.383 87.218 C 134.002 87.361,133.935 87.479,133.835 89.962 L 133.750 92.083 132.667 92.167 L 131.583 92.250 131.534 93.360 L 131.485 94.471 130.672 94.583 C 129.240 94.779,129.011 95.244,129.004 97.958 L 129.000 99.500 128.012 99.500 C 126.717 99.500,126.500 99.717,126.500 101.012 C 126.500 101.938,126.475 102.000,126.108 102.000 C 124.466 102.000,124.167 102.626,124.167 106.058 C 124.167 109.012,124.168 109.015,125.575 109.131 L 126.463 109.205 126.533 110.182 C 126.621 111.388,126.581 111.351,127.907 111.458 L 129.000 111.546 129.000 112.408 C 129.000 113.620,129.240 113.877,130.456 113.965 L 131.457 114.037 131.544 115.111 C 131.648 116.417,131.613 116.379,132.818 116.467 L 133.796 116.537 133.867 117.521 C 133.956 118.748,134.087 118.878,135.331 118.968 L 136.333 119.040 136.333 119.822 C 136.333 120.951,136.590 121.211,137.792 121.298 L 138.796 121.371 138.869 122.374 C 138.957 123.598,139.212 123.833,140.449 123.833 L 141.333 123.833 141.333 124.921 C 141.333 126.162,141.525 126.333,142.907 126.333 L 143.627 126.333 143.699 127.330 C 143.787 128.556,143.748 128.518,145.056 128.623 L 146.130 128.709 146.201 129.690 C 146.289 130.911,146.422 131.044,147.646 131.133 L 148.629 131.204 148.702 132.208 C 148.789 133.410,149.049 133.667,150.178 133.667 L 150.960 133.667 151.032 134.669 C 151.072 135.221,151.198 135.764,151.311 135.877 C 151.703 136.269,226.039 136.168,226.473 135.775 C 226.694 135.574,226.852 135.157,226.924 134.584 L 227.034 133.701 227.917 133.591 C 229.003 133.455,229.313 133.140,229.443 132.042 L 229.542 131.204 230.395 131.091 C 231.564 130.936,231.833 130.653,231.833 129.579 L 231.833 128.710 232.818 128.598 C 233.982 128.467,234.109 128.345,234.258 127.225 L 234.371 126.375 235.208 126.276 C 236.307 126.146,236.622 125.836,236.757 124.750 L 236.867 123.867 237.750 123.757 C 238.836 123.621,239.146 123.307,239.276 122.206 L 239.376 121.366 240.260 121.256 C 241.318 121.124,241.445 120.994,241.591 119.892 L 241.704 119.042 242.542 118.943 C 243.640 118.813,243.955 118.503,244.091 117.417 L 244.201 116.534 245.084 116.424 C 246.169 116.288,246.479 115.973,246.609 114.875 L 246.709 114.037 247.562 113.924 C 248.731 113.769,249.000 113.486,249.000 112.412 L 249.000 111.543 249.985 111.432 C 251.142 111.301,251.262 111.188,251.424 110.083 C 251.561 109.146,251.693 109.006,252.440 109.003 C 253.215 108.999,253.642 108.550,253.829 107.541 C 253.976 106.752,253.960 106.338,253.743 105.238 C 253.668 104.855,252.794 103.899,252.010 103.340 C 251.510 102.985,251.500 102.949,251.500 101.572 C 251.500 99.787,251.281 99.500,249.917 99.500 L 249.000 99.500 249.000 98.354 C 249.000 96.564,248.369 95.369,247.225 94.992 C 246.672 94.809,246.667 94.797,246.664 93.779 C 246.661 92.392,246.563 92.280,245.285 92.199 L 244.213 92.131 244.124 90.507 C 243.998 88.235,243.608 87.550,242.340 87.380 L 241.667 87.289 241.667 86.300 C 241.667 84.848,241.521 84.667,240.351 84.667 L 239.381 84.667 239.294 82.835 C 239.179 80.405,239.043 80.191,237.458 79.924 L 236.833 79.818 236.833 78.776 C 236.833 77.474,236.693 77.333,235.401 77.333 L 234.368 77.333 234.309 75.338 C 234.239 72.969,234.096 72.722,232.707 72.557 L 231.847 72.455 231.799 71.269 L 231.750 70.083 230.667 70.000 L 229.583 69.917 229.500 67.880 C 229.401 65.468,229.313 65.317,227.925 65.202 L 227.000 65.125 227.000 63.985 C 227.000 63.062,226.943 62.815,226.703 62.686 C 226.540 62.599,226.301 62.259,226.172 61.930 C 226.003 61.500,225.741 61.238,225.237 60.994 L 224.536 60.654 224.474 59.422 C 224.399 57.940,224.412 57.956,223.163 57.865 L 222.167 57.793 222.167 56.677 C 222.167 54.503,221.543 53.337,220.251 53.095 L 219.667 52.985 219.667 52.006 C 219.667 50.530,219.641 50.500,218.340 50.500 L 217.217 50.500 217.122 48.704 C 216.990 46.207,216.719 45.741,215.333 45.630 L 214.750 45.583 214.667 44.500 C 214.556 43.063,214.499 43.000,213.323 43.000 L 212.333 43.000 212.332 41.458 C 212.331 38.872,212.118 38.471,210.625 38.248 L 209.833 38.129 209.833 37.085 C 209.833 35.821,209.716 35.701,208.411 35.634 L 207.417 35.583 207.333 33.547 C 207.235 31.135,207.146 30.984,205.758 30.869 L 204.833 30.792 204.833 29.563 C 204.833 28.480,204.797 28.333,204.527 28.333 C 204.358 28.333,204.135 28.146,204.031 27.918 C 203.927 27.690,203.543 27.296,203.177 27.043 L 202.513 26.583 202.506 25.407 C 202.498 23.845,202.326 23.628,201.022 23.534 L 200.000 23.460 200.000 22.394 C 200.000 21.808,199.937 21.199,199.860 21.039 C 199.782 20.880,199.545 20.390,199.332 19.950 C 198.996 19.256,198.851 19.125,198.223 18.957 L 197.500 18.764 197.500 17.788 C 197.500 16.349,197.352 16.167,196.186 16.167 L 195.217 16.167 195.118 14.428 C 194.982 12.014,194.529 11.333,193.058 11.333 C 192.688 11.333,192.667 11.276,192.667 10.262 C 192.667 8.637,192.736 8.667,188.923 8.667 C 186.140 8.667,185.689 8.702,185.601 8.930 M283.958 8.847 C 283.728 8.981,283.667 9.244,283.667 10.092 L 283.667 11.167 282.676 11.167 C 281.451 11.167,281.167 11.472,281.167 12.787 L 281.167 13.667 280.250 13.667 C 279.004 13.667,278.667 14.004,278.667 15.250 L 278.667 16.167 277.589 16.167 C 276.322 16.167,276.167 16.329,276.167 17.656 L 276.167 18.500 275.259 18.500 C 274.126 18.500,273.833 18.833,273.833 20.120 L 273.833 21.000 272.917 21.000 C 271.671 21.000,271.333 21.337,271.333 22.583 L 271.333 23.500 270.454 23.500 C 269.166 23.500,268.833 23.793,268.833 24.926 L 268.833 25.833 267.917 25.833 C 266.671 25.833,266.333 26.171,266.333 27.417 L 266.333 28.333 265.426 28.333 C 264.293 28.333,264.000 28.666,264.000 29.954 L 264.000 30.833 263.120 30.833 C 261.805 30.833,261.500 31.118,261.500 32.343 L 261.500 33.333 260.423 33.333 C 259.155 33.333,259.000 33.496,259.000 34.822 L 259.000 35.667 258.156 35.667 C 256.611 35.667,256.667 35.527,256.667 39.423 L 256.667 42.833 257.833 42.833 L 259.000 42.833 259.000 43.883 C 259.000 45.196,259.137 45.333,260.450 45.333 L 261.500 45.333 261.500 46.383 C 261.500 47.696,261.637 47.833,262.950 47.833 L 264.000 47.833 264.000 48.883 C 264.000 50.180,264.145 50.333,265.367 50.333 L 266.333 50.333 266.333 51.300 C 266.333 52.522,266.487 52.667,267.783 52.667 L 268.833 52.667 268.833 53.717 C 268.833 55.030,268.970 55.167,270.283 55.167 L 271.333 55.167 271.333 56.217 C 271.333 57.528,271.471 57.667,272.776 57.667 L 273.818 57.667 273.867 58.792 L 273.917 59.917 275.042 59.966 L 276.167 60.015 276.167 61.058 C 276.167 62.362,276.305 62.500,277.617 62.500 L 278.667 62.500 278.667 63.550 C 278.667 64.863,278.804 65.000,280.117 65.000 L 281.167 65.000 281.167 66.050 C 281.167 67.362,281.304 67.500,282.609 67.500 L 283.651 67.500 283.701 68.625 L 283.750 69.750 284.875 69.799 L 286.000 69.849 286.000 70.891 C 286.000 72.194,286.135 72.327,287.492 72.360 L 288.583 72.386 287.452 72.485 C 286.117 72.601,286.006 72.721,286.003 74.042 L 286.000 75.000 285.097 75.000 C 283.714 75.000,283.667 75.042,283.667 76.268 L 283.667 77.333 282.679 77.333 C 281.384 77.333,281.167 77.550,281.167 78.845 L 281.167 79.833 280.179 79.833 C 278.884 79.833,278.667 80.050,278.667 81.345 L 278.667 82.333 277.787 82.333 C 276.500 82.333,276.167 82.626,276.167 83.759 L 276.167 84.667 275.259 84.667 C 274.126 84.667,273.833 85.000,273.833 86.287 L 273.833 87.167 272.917 87.167 C 271.671 87.167,271.333 87.504,271.333 88.750 L 271.333 89.667 270.417 89.667 C 269.177 89.667,268.833 90.006,268.833 91.231 L 268.833 92.128 267.739 92.198 C 266.458 92.279,266.339 92.400,266.336 93.625 L 266.333 94.500 265.426 94.500 C 264.293 94.500,264.000 94.833,264.000 96.120 L 264.000 97.000 263.083 97.000 C 261.837 97.000,261.500 97.337,261.500 98.583 L 261.500 99.500 260.620 99.500 C 259.333 99.500,259.000 99.793,259.000 100.926 L 259.000 101.833 258.115 101.833 C 256.620 101.833,256.653 101.744,256.705 105.667 L 256.750 109.083 257.875 109.133 L 259.000 109.182 259.000 110.240 C 259.000 111.467,259.040 111.500,260.514 111.500 L 261.500 111.500 261.500 112.550 C 261.500 113.863,261.637 114.000,262.950 114.000 L 264.000 114.000 264.000 115.050 C 264.000 116.346,264.145 116.500,265.367 116.500 L 266.333 116.500 266.333 117.550 C 266.333 118.863,266.470 119.000,267.783 119.000 L 268.833 119.000 268.833 119.967 C 268.833 121.189,268.987 121.333,270.283 121.333 L 271.333 121.333 271.333 122.383 C 271.333 123.696,271.470 123.833,272.783 123.833 L 273.833 123.833 273.833 124.883 C 273.833 126.180,273.978 126.333,275.200 126.333 L 276.167 126.333 276.167 127.399 C 276.167 128.635,276.205 128.667,277.680 128.667 L 278.667 128.667 278.667 129.717 C 278.667 131.030,278.804 131.167,280.117 131.167 L 281.167 131.167 281.167 132.217 C 281.167 133.528,281.304 133.667,282.609 133.667 L 283.652 133.667 283.701 134.875 L 283.750 136.083 287.250 136.083 C 290.657 136.083,290.751 136.074,290.799 135.740 C 290.826 135.551,291.073 135.263,291.348 135.101 C 291.623 134.938,292.014 134.552,292.216 134.243 C 292.418 133.933,292.733 133.658,292.917 133.632 C 293.117 133.603,293.271 133.432,293.304 133.206 C 293.338 132.965,293.586 132.711,293.988 132.506 C 294.358 132.318,294.703 131.980,294.823 131.691 C 294.935 131.420,295.171 131.161,295.347 131.115 C 295.534 131.066,295.667 130.886,295.667 130.682 C 295.667 130.453,295.773 130.333,295.978 130.333 C 296.463 130.333,297.113 129.728,297.224 129.172 C 297.298 128.800,297.418 128.667,297.678 128.667 C 297.883 128.667,298.065 128.536,298.113 128.354 C 298.158 128.181,298.375 127.958,298.596 127.858 C 298.817 127.757,299.204 127.378,299.457 127.015 C 299.710 126.652,300.067 126.332,300.250 126.303 C 300.433 126.274,300.607 126.100,300.636 125.917 C 300.665 125.733,300.986 125.376,301.349 125.124 C 301.711 124.871,302.091 124.483,302.191 124.263 C 302.292 124.042,302.515 123.825,302.687 123.780 C 302.866 123.733,303.000 123.550,303.000 123.352 C 303.000 123.112,303.141 122.973,303.458 122.897 C 304.050 122.757,304.420 122.429,304.672 121.821 C 304.783 121.553,304.984 121.333,305.119 121.333 C 305.254 121.333,305.401 121.194,305.445 121.025 C 305.490 120.855,305.781 120.595,306.092 120.446 C 306.448 120.276,306.747 119.963,306.898 119.601 C 307.059 119.217,307.267 119.009,307.528 118.972 C 307.774 118.937,307.935 118.787,307.967 118.565 C 307.995 118.371,308.200 118.129,308.424 118.027 C 308.648 117.925,309.037 117.545,309.290 117.182 C 309.543 116.819,309.900 116.498,310.083 116.469 C 310.282 116.438,310.438 116.264,310.470 116.039 C 310.504 115.798,310.753 115.545,311.155 115.339 C 311.533 115.147,311.870 114.814,311.996 114.509 C 312.112 114.229,312.318 114.000,312.452 114.000 C 312.587 114.000,312.735 113.856,312.781 113.680 C 312.827 113.504,313.085 113.269,313.355 113.158 C 313.932 112.919,314.500 112.250,314.500 111.811 C 314.500 111.606,314.620 111.500,314.849 111.500 C 315.053 111.500,315.233 111.367,315.281 111.180 C 315.327 111.004,315.567 110.777,315.813 110.675 C 316.060 110.573,316.443 110.195,316.666 109.835 C 316.888 109.475,317.223 109.159,317.410 109.132 C 317.599 109.105,317.773 108.935,317.803 108.750 C 317.832 108.567,318.152 108.210,318.515 107.957 C 318.878 107.704,319.260 107.310,319.364 107.082 C 319.468 106.854,319.691 106.667,319.860 106.667 C 320.079 106.667,320.172 106.535,320.186 106.208 C 320.201 105.857,320.225 105.828,320.289 106.083 C 320.411 106.574,320.638 106.661,321.792 106.664 L 322.833 106.667 322.833 107.717 C 322.833 109.030,322.970 109.167,324.283 109.167 L 325.333 109.167 325.333 110.232 C 325.333 111.467,325.373 111.500,326.840 111.500 L 327.819 111.500 327.868 112.708 L 327.917 113.917 329.042 113.966 L 330.167 114.015 330.167 115.058 C 330.167 116.362,330.305 116.500,331.617 116.500 L 332.667 116.500 332.667 117.550 C 332.667 118.863,332.804 119.000,334.117 119.000 L 335.167 119.000 335.167 119.967 C 335.167 121.172,335.328 121.333,336.533 121.333 L 337.500 121.333 337.500 122.383 C 337.500 123.696,337.637 123.833,338.950 123.833 L 340.000 123.833 340.000 124.883 C 340.000 126.196,340.137 126.333,341.450 126.333 L 342.500 126.333 342.500 127.399 C 342.500 128.635,342.538 128.667,344.014 128.667 L 345.000 128.667 345.000 129.653 C 345.000 131.128,345.032 131.167,346.268 131.167 L 347.333 131.167 347.333 132.217 C 347.333 133.530,347.470 133.667,348.783 133.667 L 349.833 133.667 349.833 134.730 C 349.833 136.219,349.733 136.182,353.605 136.129 C 356.779 136.085,356.919 136.069,356.965 135.748 C 356.992 135.560,357.285 135.267,357.631 135.081 C 357.974 134.898,358.362 134.512,358.500 134.217 C 358.637 133.924,358.900 133.662,359.083 133.634 C 359.273 133.605,359.438 133.433,359.466 133.235 C 359.496 133.030,359.752 132.775,360.093 132.612 C 360.438 132.448,360.781 132.105,360.946 131.760 C 361.108 131.419,361.363 131.162,361.569 131.133 C 361.766 131.105,361.938 130.939,361.967 130.750 C 361.995 130.567,362.257 130.304,362.551 130.167 C 362.848 130.027,363.231 129.641,363.417 129.292 C 363.617 128.917,363.873 128.667,364.057 128.667 C 364.226 128.667,364.403 128.519,364.450 128.339 C 364.497 128.159,364.781 127.867,365.082 127.690 C 365.382 127.513,365.762 127.140,365.926 126.862 C 366.090 126.584,366.361 126.321,366.529 126.277 C 366.696 126.234,366.834 126.060,366.834 125.891 C 366.834 125.706,367.084 125.450,367.459 125.250 C 367.822 125.056,368.182 124.693,368.318 124.383 C 368.457 124.069,368.696 123.829,368.902 123.800 C 369.107 123.770,369.270 123.607,369.300 123.402 C 369.329 123.196,369.569 122.957,369.883 122.818 C 370.193 122.682,370.556 122.322,370.750 121.959 C 370.950 121.584,371.206 121.334,371.391 121.334 C 371.560 121.334,371.734 121.196,371.777 121.029 C 371.821 120.861,372.084 120.590,372.362 120.426 C 372.640 120.262,373.013 119.882,373.190 119.582 C 373.367 119.281,373.659 118.997,373.839 118.950 C 374.020 118.903,374.167 118.722,374.167 118.546 C 374.167 118.348,374.383 118.125,374.745 117.953 C 375.063 117.801,375.495 117.416,375.704 117.097 C 375.912 116.778,376.215 116.483,376.375 116.441 C 376.535 116.399,376.667 116.219,376.667 116.041 C 376.667 115.827,376.883 115.620,377.304 115.430 C 377.759 115.225,378.001 114.978,378.148 114.571 C 378.291 114.176,378.459 114.000,378.693 114.000 C 378.879 114.000,379.068 113.869,379.112 113.708 C 379.157 113.548,379.431 113.265,379.722 113.081 C 380.012 112.896,380.400 112.465,380.583 112.123 C 380.783 111.751,381.040 111.501,381.224 111.500 C 381.393 111.500,381.570 111.353,381.617 111.173 C 381.664 110.992,381.948 110.700,382.248 110.523 C 382.549 110.346,382.929 109.974,383.093 109.696 C 383.257 109.418,383.528 109.155,383.696 109.111 C 383.978 109.037,384.000 108.783,384.000 105.632 C 384.000 101.742,384.033 101.833,382.633 101.833 L 381.667 101.833 381.667 100.867 C 381.667 99.645,381.513 99.500,380.217 99.500 L 379.167 99.500 379.167 98.450 C 379.167 97.137,379.030 97.000,377.717 97.000 L 376.667 97.000 376.667 95.950 C 376.667 94.638,376.529 94.500,375.224 94.500 L 374.182 94.500 374.133 93.375 L 374.083 92.250 372.958 92.201 L 371.833 92.151 371.833 91.109 C 371.833 89.804,371.695 89.667,370.383 89.667 L 369.333 89.667 369.333 88.617 C 369.333 87.304,369.196 87.167,367.883 87.167 L 366.833 87.167 366.833 86.117 C 366.833 84.820,366.689 84.667,365.467 84.667 L 364.500 84.667 364.500 83.700 C 364.500 82.478,364.346 82.333,363.050 82.333 L 362.000 82.333 362.000 81.283 C 362.000 79.970,361.863 79.833,360.550 79.833 L 359.500 79.833 359.500 78.783 C 359.500 77.472,359.362 77.333,358.058 77.333 L 357.015 77.333 356.966 76.208 L 356.917 75.083 355.799 75.034 L 354.681 74.985 354.632 73.791 C 354.587 72.675,354.556 72.590,354.167 72.491 L 353.750 72.384 354.160 72.317 C 354.431 72.273,354.603 72.109,354.667 71.834 C 354.722 71.600,354.907 71.392,355.091 71.359 C 355.536 71.277,355.931 70.901,356.165 70.337 C 356.273 70.078,356.504 69.827,356.680 69.781 C 356.856 69.735,357.000 69.597,357.000 69.474 C 357.001 69.351,357.282 69.100,357.625 68.917 C 357.974 68.731,358.361 68.348,358.500 68.051 C 358.637 67.757,358.900 67.495,359.083 67.467 C 359.277 67.438,359.438 67.266,359.468 67.058 C 359.497 66.851,359.715 66.618,359.981 66.508 C 360.236 66.402,360.625 66.024,360.847 65.667 C 361.069 65.311,361.400 64.996,361.583 64.968 C 361.777 64.938,361.938 64.766,361.968 64.556 C 361.999 64.335,362.245 64.088,362.601 63.919 C 362.950 63.754,363.293 63.414,363.456 63.072 C 363.626 62.715,363.848 62.500,364.046 62.500 C 364.222 62.500,364.403 62.354,364.450 62.173 C 364.497 61.992,364.790 61.695,365.101 61.512 C 365.412 61.328,365.784 60.931,365.928 60.630 C 366.144 60.178,366.368 60.023,367.209 59.749 C 368.129 59.449,368.266 59.343,368.607 58.667 C 369.058 57.774,369.588 57.167,369.917 57.167 C 370.273 57.167,371.333 56.175,371.333 55.842 C 371.333 55.396,371.835 54.919,372.707 54.535 C 373.175 54.328,373.560 54.029,373.651 53.801 C 373.734 53.590,373.894 53.173,374.005 52.875 C 374.166 52.445,374.301 52.333,374.664 52.333 C 375.292 52.333,375.951 51.772,376.088 51.123 C 376.214 50.522,376.890 49.833,377.353 49.833 C 377.737 49.833,378.304 49.243,378.615 48.517 C 378.920 47.807,379.140 47.587,379.851 47.282 C 380.576 46.971,381.167 46.404,381.167 46.019 C 381.167 45.557,381.856 44.881,382.456 44.755 C 383.113 44.616,383.667 43.956,383.667 43.311 C 383.667 43.048,383.742 42.833,383.833 42.833 C 384.088 42.833,384.056 36.123,383.800 35.867 C 383.690 35.757,383.168 35.667,382.641 35.667 L 381.682 35.667 381.633 34.542 L 381.583 33.417 380.375 33.368 L 379.167 33.319 379.167 32.276 C 379.167 30.971,379.028 30.833,377.717 30.833 L 376.667 30.833 376.667 29.783 C 376.667 28.470,376.530 28.333,375.217 28.333 L 374.167 28.333 374.167 27.347 C 374.167 25.872,374.135 25.833,372.899 25.833 L 371.833 25.833 371.833 24.867 C 371.833 23.645,371.680 23.500,370.383 23.500 L 369.333 23.500 369.333 22.450 C 369.333 21.137,369.196 21.000,367.883 21.000 L 366.833 21.000 366.833 19.950 C 366.833 18.655,366.688 18.500,365.474 18.500 L 364.515 18.500 364.466 17.375 L 364.417 16.250 363.208 16.201 L 362.000 16.152 362.000 15.109 C 362.000 13.804,361.862 13.667,360.550 13.667 L 359.500 13.667 359.500 12.617 C 359.500 11.304,359.363 11.167,358.050 11.167 L 357.000 11.167 357.000 10.180 C 357.000 8.563,357.230 8.667,353.649 8.667 C 349.908 8.667,349.833 8.698,349.833 10.250 L 349.833 11.167 348.917 11.167 C 347.671 11.167,347.333 11.504,347.333 12.750 L 347.333 13.667 346.458 13.669 C 345.233 13.673,345.112 13.791,345.031 15.072 L 344.961 16.167 343.903 16.167 C 342.658 16.167,342.500 16.334,342.500 17.656 L 342.500 18.500 341.583 18.500 C 340.337 18.500,340.000 18.837,340.000 20.083 L 340.000 21.000 339.083 21.000 C 337.837 21.000,337.500 21.337,337.500 22.583 L 337.500 23.500 336.609 23.500 C 335.456 23.500,335.167 23.796,335.167 24.971 L 335.167 25.833 334.250 25.833 C 333.004 25.833,332.667 26.171,332.667 27.417 L 332.667 28.333 331.750 28.333 C 330.504 28.333,330.167 28.671,330.167 29.917 L 330.167 30.833 329.322 30.833 C 327.996 30.833,327.833 30.989,327.833 32.256 L 327.833 33.333 326.756 33.333 C 325.489 33.333,325.333 33.496,325.333 34.822 L 325.333 35.667 324.417 35.667 C 323.171 35.667,322.833 36.004,322.833 37.250 L 322.833 38.167 321.917 38.167 C 320.673 38.167,320.344 38.498,320.303 39.792 C 320.274 40.724,320.271 40.716,320.178 39.500 L 320.083 38.250 318.958 38.201 L 317.833 38.151 317.833 37.109 C 317.833 35.806,317.694 35.667,316.391 35.667 L 315.349 35.667 315.299 34.542 L 315.250 33.417 314.042 33.368 L 312.833 33.319 312.833 32.276 C 312.833 30.988,312.687 30.833,311.467 30.833 L 310.500 30.833 310.500 29.783 C 310.500 28.470,310.363 28.333,309.050 28.333 L 308.000 28.333 308.000 27.283 C 308.000 25.970,307.863 25.833,306.550 25.833 L 305.500 25.833 305.500 24.867 C 305.500 23.645,305.346 23.500,304.050 23.500 L 303.000 23.500 303.000 22.514 C 303.000 21.038,302.968 21.000,301.732 21.000 L 300.667 21.000 300.667 19.950 C 300.667 18.638,300.529 18.500,299.224 18.500 L 298.182 18.500 298.133 17.375 L 298.083 16.250 296.875 16.201 L 295.667 16.152 295.667 15.109 C 295.667 13.821,295.520 13.667,294.300 13.667 L 293.333 13.667 293.333 12.617 C 293.333 11.304,293.196 11.167,291.883 11.167 L 290.833 11.167 290.833 10.117 C 290.833 9.522,290.747 8.980,290.633 8.867 C 290.379 8.612,284.392 8.594,283.958 8.847 " stroke="none" fill="#ffffff" fill-rule="evenodd"></path><path id="path1" d="M16.244 8.875 C 16.200 8.990,16.184 37.658,16.207 72.583 L 16.250 136.083 38.167 136.083 L 60.083 136.083 60.126 122.625 L 60.169 109.167 89.397 109.167 C 113.844 109.167,118.657 109.130,118.814 108.940 C 118.953 108.773,118.991 99.218,118.959 72.509 L 118.917 36.304 118.523 35.985 C 118.256 35.769,117.869 35.667,117.315 35.667 L 116.500 35.667 116.500 35.021 C 116.500 33.446,116.415 33.333,115.229 33.333 L 114.167 33.333 114.167 32.449 C 114.167 31.212,113.932 30.957,112.708 30.869 L 111.704 30.796 111.633 29.812 C 111.544 28.589,111.411 28.456,110.188 28.367 L 109.204 28.296 109.131 27.292 C 109.043 26.068,108.788 25.833,107.551 25.833 L 106.667 25.833 106.667 24.829 C 106.667 23.682,106.452 23.500,105.093 23.500 L 104.373 23.500 104.301 22.498 C 104.211 21.254,104.081 21.123,102.854 21.034 L 101.871 20.963 101.800 19.979 C 101.711 18.752,101.579 18.622,100.336 18.532 L 99.333 18.460 99.333 17.741 C 99.333 16.382,99.152 16.167,98.004 16.167 L 97.000 16.167 97.000 15.282 C 97.000 14.045,96.765 13.790,95.541 13.702 L 94.537 13.629 94.466 12.646 C 94.378 11.422,94.245 11.289,93.021 11.200 L 92.037 11.129 91.965 10.126 C 91.912 9.396,91.807 9.060,91.581 8.894 C 91.139 8.571,16.366 8.552,16.244 8.875 M185.601 8.930 C 185.546 9.075,185.500 9.629,185.500 10.160 L 185.500 11.125 184.575 11.202 C 183.182 11.318,183.103 11.457,183.002 13.962 L 182.917 16.083 181.750 16.167 L 180.583 16.250 180.534 17.357 L 180.486 18.464 179.701 18.582 C 178.207 18.806,178.002 19.202,178.001 21.875 L 178.000 23.500 177.020 23.500 C 175.828 23.500,175.701 23.631,175.634 24.922 L 175.583 25.917 175.000 25.963 C 173.614 26.075,173.343 26.540,173.211 29.038 L 173.117 30.833 172.154 30.833 C 170.894 30.833,170.667 31.060,170.667 32.316 L 170.667 33.275 169.888 33.512 C 168.675 33.883,168.437 34.335,168.360 36.424 L 168.296 38.167 167.324 38.167 C 166.080 38.167,165.833 38.462,165.833 39.954 C 165.833 40.758,165.777 41.000,165.591 41.000 C 165.036 41.000,164.500 41.423,164.137 42.146 C 163.924 42.570,163.656 42.977,163.542 43.050 C 163.408 43.135,163.333 43.593,163.333 44.321 L 163.333 45.459 162.408 45.535 C 161.115 45.643,160.953 45.857,160.833 47.623 C 160.724 49.227,159.992 50.385,159.000 50.525 C 158.608 50.580,158.580 50.651,158.534 51.708 L 158.485 52.833 157.934 52.833 C 156.305 52.833,156.002 53.349,156.001 56.125 L 156.000 57.833 155.014 57.833 C 153.540 57.833,153.500 57.867,153.500 59.091 L 153.500 60.146 152.744 60.260 C 151.327 60.472,151.011 61.098,151.004 63.708 L 151.000 65.167 150.006 65.167 C 148.822 65.167,148.667 65.346,148.667 66.717 L 148.667 67.623 147.959 67.718 C 146.718 67.884,146.167 69.025,146.167 71.425 L 146.167 72.500 145.250 72.500 C 143.987 72.500,143.667 72.832,143.667 74.140 L 143.667 75.114 143.027 75.306 C 141.879 75.649,141.333 76.740,141.333 78.688 L 141.333 79.833 140.449 79.833 C 139.119 79.833,138.932 80.044,138.860 81.629 C 138.800 82.948,138.798 82.955,138.238 83.222 C 137.885 83.391,137.586 83.705,137.435 84.065 C 137.275 84.449,137.066 84.658,136.806 84.695 C 136.445 84.746,136.413 84.837,136.368 85.936 L 136.320 87.121 135.383 87.218 C 134.002 87.361,133.935 87.479,133.835 89.962 L 133.750 92.083 132.667 92.167 L 131.583 92.250 131.534 93.360 L 131.485 94.471 130.672 94.583 C 129.240 94.779,129.011 95.244,129.004 97.958 L 129.000 99.500 128.012 99.500 C 126.717 99.500,126.500 99.717,126.500 101.012 C 126.500 101.938,126.475 102.000,126.108 102.000 C 124.466 102.000,124.167 102.626,124.167 106.058 C 124.167 109.012,124.168 109.015,125.575 109.131 L 126.463 109.205 126.533 110.182 C 126.621 111.388,126.581 111.351,127.907 111.458 L 129.000 111.546 129.000 112.408 C 129.000 113.620,129.240 113.877,130.456 113.965 L 131.457 114.037 131.544 115.111 C 131.648 116.417,131.613 116.379,132.818 116.467 L 133.796 116.537 133.867 117.521 C 133.956 118.748,134.087 118.878,135.331 118.968 L 136.333 119.040 136.333 119.822 C 136.333 120.951,136.590 121.211,137.792 121.298 L 138.796 121.371 138.869 122.374 C 138.957 123.598,139.212 123.833,140.449 123.833 L 141.333 123.833 141.333 124.921 C 141.333 126.162,141.525 126.333,142.907 126.333 L 143.627 126.333 143.699 127.330 C 143.787 128.556,143.748 128.518,145.056 128.623 L 146.130 128.709 146.201 129.690 C 146.289 130.911,146.422 131.044,147.646 131.133 L 148.629 131.204 148.702 132.208 C 148.789 133.410,149.049 133.667,150.178 133.667 L 150.960 133.667 151.032 134.669 C 151.072 135.221,151.198 135.764,151.311 135.877 C 151.703 136.269,226.039 136.168,226.473 135.775 C 226.694 135.574,226.852 135.157,226.924 134.584 L 227.034 133.701 227.917 133.591 C 229.003 133.455,229.313 133.140,229.443 132.042 L 229.542 131.204 230.395 131.091 C 231.564 130.936,231.833 130.653,231.833 129.579 L 231.833 128.710 232.818 128.598 C 233.982 128.467,234.109 128.345,234.258 127.225 L 234.371 126.375 235.208 126.276 C 236.307 126.146,236.622 125.836,236.757 124.750 L 236.867 123.867 237.750 123.757 C 238.836 123.621,239.146 123.307,239.276 122.206 L 239.376 121.366 240.260 121.256 C 241.318 121.124,241.445 120.994,241.591 119.892 L 241.704 119.042 242.542 118.943 C 243.640 118.813,243.955 118.503,244.091 117.417 L 244.201 116.534 245.084 116.424 C 246.169 116.288,246.479 115.973,246.609 114.875 L 246.709 114.037 247.562 113.924 C 248.731 113.769,249.000 113.486,249.000 112.412 L 249.000 111.543 249.985 111.432 C 251.142 111.301,251.262 111.188,251.424 110.083 C 251.561 109.146,251.693 109.006,252.440 109.003 C 253.215 108.999,253.642 108.550,253.829 107.541 C 253.976 106.752,253.960 106.338,253.743 105.238 C 253.668 104.855,252.794 103.899,252.010 103.340 C 251.510 102.985,251.500 102.949,251.500 101.572 C 251.500 99.787,251.281 99.500,249.917 99.500 L 249.000 99.500 249.000 98.354 C 249.000 96.564,248.369 95.369,247.225 94.992 C 246.672 94.809,246.667 94.797,246.664 93.779 C 246.661 92.392,246.563 92.280,245.285 92.199 L 244.213 92.131 244.124 90.507 C 243.998 88.235,243.608 87.550,242.340 87.380 L 241.667 87.289 241.667 86.300 C 241.667 84.848,241.521 84.667,240.351 84.667 L 239.381 84.667 239.294 82.835 C 239.179 80.405,239.043 80.191,237.458 79.924 L 236.833 79.818 236.833 78.776 C 236.833 77.474,236.693 77.333,235.401 77.333 L 234.368 77.333 234.309 75.338 C 234.239 72.969,234.096 72.722,232.707 72.557 L 231.847 72.455 231.799 71.269 L 231.750 70.083 230.667 70.000 L 229.583 69.917 229.500 67.880 C 229.401 65.468,229.313 65.317,227.925 65.202 L 227.000 65.125 227.000 63.985 C 227.000 63.062,226.943 62.815,226.703 62.686 C 226.540 62.599,226.301 62.259,226.172 61.930 C 226.003 61.500,225.741 61.238,225.237 60.994 L 224.536 60.654 224.474 59.422 C 224.399 57.940,224.412 57.956,223.163 57.865 L 222.167 57.793 222.167 56.677 C 222.167 54.503,221.543 53.337,220.251 53.095 L 219.667 52.985 219.667 52.006 C 219.667 50.530,219.641 50.500,218.340 50.500 L 217.217 50.500 217.122 48.704 C 216.990 46.207,216.719 45.741,215.333 45.630 L 214.750 45.583 214.667 44.500 C 214.556 43.063,214.499 43.000,213.323 43.000 L 212.333 43.000 212.332 41.458 C 212.331 38.872,212.118 38.471,210.625 38.248 L 209.833 38.129 209.833 37.085 C 209.833 35.821,209.716 35.701,208.411 35.634 L 207.417 35.583 207.333 33.547 C 207.235 31.135,207.146 30.984,205.758 30.869 L 204.833 30.792 204.833 29.563 C 204.833 28.480,204.797 28.333,204.527 28.333 C 204.358 28.333,204.135 28.146,204.031 27.918 C 203.927 27.690,203.543 27.296,203.177 27.043 L 202.513 26.583 202.506 25.407 C 202.498 23.845,202.326 23.628,201.022 23.534 L 200.000 23.460 200.000 22.394 C 200.000 21.808,199.937 21.199,199.860 21.039 C 199.782 20.880,199.545 20.390,199.332 19.950 C 198.996 19.256,198.851 19.125,198.223 18.957 L 197.500 18.764 197.500 17.788 C 197.500 16.349,197.352 16.167,196.186 16.167 L 195.217 16.167 195.118 14.428 C 194.982 12.014,194.529 11.333,193.058 11.333 C 192.688 11.333,192.667 11.276,192.667 10.262 C 192.667 8.637,192.736 8.667,188.923 8.667 C 186.140 8.667,185.689 8.702,185.601 8.930 M283.958 8.847 C 283.728 8.981,283.667 9.244,283.667 10.092 L 283.667 11.167 282.676 11.167 C 281.451 11.167,281.167 11.472,281.167 12.787 L 281.167 13.667 280.250 13.667 C 279.004 13.667,278.667 14.004,278.667 15.250 L 278.667 16.167 277.589 16.167 C 276.322 16.167,276.167 16.329,276.167 17.656 L 276.167 18.500 275.259 18.500 C 274.126 18.500,273.833 18.833,273.833 20.120 L 273.833 21.000 272.917 21.000 C 271.671 21.000,271.333 21.337,271.333 22.583 L 271.333 23.500 270.454 23.500 C 269.166 23.500,268.833 23.793,268.833 24.926 L 268.833 25.833 267.917 25.833 C 266.671 25.833,266.333 26.171,266.333 27.417 L 266.333 28.333 265.426 28.333 C 264.293 28.333,264.000 28.666,264.000 29.954 L 264.000 30.833 263.120 30.833 C 261.805 30.833,261.500 31.118,261.500 32.343 L 261.500 33.333 260.423 33.333 C 259.155 33.333,259.000 33.496,259.000 34.822 L 259.000 35.667 258.156 35.667 C 256.611 35.667,256.667 35.527,256.667 39.423 L 256.667 42.833 257.833 42.833 L 259.000 42.833 259.000 43.883 C 259.000 45.196,259.137 45.333,260.450 45.333 L 261.500 45.333 261.500 46.383 C 261.500 47.696,261.637 47.833,262.950 47.833 L 264.000 47.833 264.000 48.883 C 264.000 50.180,264.145 50.333,265.367 50.333 L 266.333 50.333 266.333 51.300 C 266.333 52.522,266.487 52.667,267.783 52.667 L 268.833 52.667 268.833 53.717 C 268.833 55.030,268.970 55.167,270.283 55.167 L 271.333 55.167 271.333 56.217 C 271.333 57.528,271.471 57.667,272.776 57.667 L 273.818 57.667 273.867 58.792 L 273.917 59.917 275.042 59.966 L 276.167 60.015 276.167 61.058 C 276.167 62.362,276.305 62.500,277.617 62.500 L 278.667 62.500 278.667 63.550 C 278.667 64.863,278.804 65.000,280.117 65.000 L 281.167 65.000 281.167 66.050 C 281.167 67.362,281.304 67.500,282.609 67.500 L 283.651 67.500 283.701 68.625 L 283.750 69.750 284.875 69.799 L 286.000 69.849 286.000 70.891 C 286.000 72.194,286.135 72.327,287.492 72.360 L 288.583 72.386 287.452 72.485 C 286.117 72.601,286.006 72.721,286.003 74.042 L 286.000 75.000 285.097 75.000 C 283.714 75.000,283.667 75.042,283.667 76.268 L 283.667 77.333 282.679 77.333 C 281.384 77.333,281.167 77.550,281.167 78.845 L 281.167 79.833 280.179 79.833 C 278.884 79.833,278.667 80.050,278.667 81.345 L 278.667 82.333 277.787 82.333 C 276.500 82.333,276.167 82.626,276.167 83.759 L 276.167 84.667 275.259 84.667 C 274.126 84.667,273.833 85.000,273.833 86.287 L 273.833 87.167 272.917 87.167 C 271.671 87.167,271.333 87.504,271.333 88.750 L 271.333 89.667 270.417 89.667 C 269.177 89.667,268.833 90.006,268.833 91.231 L 268.833 92.128 267.739 92.198 C 266.458 92.279,266.339 92.400,266.336 93.625 L 266.333 94.500 265.426 94.500 C 264.293 94.500,264.000 94.833,264.000 96.120 L 264.000 97.000 263.083 97.000 C 261.837 97.000,261.500 97.337,261.500 98.583 L 261.500 99.500 260.620 99.500 C 259.333 99.500,259.000 99.793,259.000 100.926 L 259.000 101.833 258.115 101.833 C 256.620 101.833,256.653 101.744,256.705 105.667 L 256.750 109.083 257.875 109.133 L 259.000 109.182 259.000 110.240 C 259.000 111.467,259.040 111.500,260.514 111.500 L 261.500 111.500 261.500 112.550 C 261.500 113.863,261.637 114.000,262.950 114.000 L 264.000 114.000 264.000 115.050 C 264.000 116.346,264.145 116.500,265.367 116.500 L 266.333 116.500 266.333 117.550 C 266.333 118.863,266.470 119.000,267.783 119.000 L 268.833 119.000 268.833 119.967 C 268.833 121.189,268.987 121.333,270.283 121.333 L 271.333 121.333 271.333 122.383 C 271.333 123.696,271.470 123.833,272.783 123.833 L 273.833 123.833 273.833 124.883 C 273.833 126.180,273.978 126.333,275.200 126.333 L 276.167 126.333 276.167 127.399 C 276.167 128.635,276.205 128.667,277.680 128.667 L 278.667 128.667 278.667 129.717 C 278.667 131.030,278.804 131.167,280.117 131.167 L 281.167 131.167 281.167 132.217 C 281.167 133.528,281.304 133.667,282.609 133.667 L 283.652 133.667 283.701 134.875 L 283.750 136.083 287.250 136.083 C 290.657 136.083,290.751 136.074,290.799 135.740 C 290.826 135.551,291.073 135.263,291.348 135.101 C 291.623 134.938,292.014 134.552,292.216 134.243 C 292.418 133.933,292.733 133.658,292.917 133.632 C 293.117 133.603,293.271 133.432,293.304 133.206 C 293.338 132.965,293.586 132.711,293.988 132.506 C 294.358 132.318,294.703 131.980,294.823 131.691 C 294.935 131.420,295.171 131.161,295.347 131.115 C 295.534 131.066,295.667 130.886,295.667 130.682 C 295.667 130.453,295.773 130.333,295.978 130.333 C 296.463 130.333,297.113 129.728,297.224 129.172 C 297.298 128.800,297.418 128.667,297.678 128.667 C 297.883 128.667,298.065 128.536,298.113 128.354 C 298.158 128.181,298.375 127.958,298.596 127.858 C 298.817 127.757,299.204 127.378,299.457 127.015 C 299.710 126.652,300.067 126.332,300.250 126.303 C 300.433 126.274,300.607 126.100,300.636 125.917 C 300.665 125.733,300.986 125.376,301.349 125.124 C 301.711 124.871,302.091 124.483,302.191 124.263 C 302.292 124.042,302.515 123.825,302.687 123.780 C 302.866 123.733,303.000 123.550,303.000 123.352 C 303.000 123.112,303.141 122.973,303.458 122.897 C 304.050 122.757,304.420 122.429,304.672 121.821 C 304.783 121.553,304.984 121.333,305.119 121.333 C 305.254 121.333,305.401 121.194,305.445 121.025 C 305.490 120.855,305.781 120.595,306.092 120.446 C 306.448 120.276,306.747 119.963,306.898 119.601 C 307.059 119.217,307.267 119.009,307.528 118.972 C 307.774 118.937,307.935 118.787,307.967 118.565 C 307.995 118.371,308.200 118.129,308.424 118.027 C 308.648 117.925,309.037 117.545,309.290 117.182 C 309.543 116.819,309.900 116.498,310.083 116.469 C 310.282 116.438,310.438 116.264,310.470 116.039 C 310.504 115.798,310.753 115.545,311.155 115.339 C 311.533 115.147,311.870 114.814,311.996 114.509 C 312.112 114.229,312.318 114.000,312.452 114.000 C 312.587 114.000,312.735 113.856,312.781 113.680 C 312.827 113.504,313.085 113.269,313.355 113.158 C 313.932 112.919,314.500 112.250,314.500 111.811 C 314.500 111.606,314.620 111.500,314.849 111.500 C 315.053 111.500,315.233 111.367,315.281 111.180 C 315.327 111.004,315.567 110.777,315.813 110.675 C 316.060 110.573,316.443 110.195,316.666 109.835 C 316.888 109.475,317.223 109.159,317.410 109.132 C 317.599 109.105,317.773 108.935,317.803 108.750 C 317.832 108.567,318.152 108.210,318.515 107.957 C 318.878 107.704,319.260 107.310,319.364 107.082 C 319.468 106.854,319.691 106.667,319.860 106.667 C 320.079 106.667,320.172 106.535,320.186 106.208 C 320.201 105.857,320.225 105.828,320.289 106.083 C 320.411 106.574,320.638 106.661,321.792 106.664 L 322.833 106.667 322.833 107.717 C 322.833 109.030,322.970 109.167,324.283 109.167 L 325.333 109.167 325.333 110.232 C 325.333 111.467,325.373 111.500,326.840 111.500 L 327.819 111.500 327.868 112.708 L 327.917 113.917 329.042 113.966 L 330.167 114.015 330.167 115.058 C 330.167 116.362,330.305 116.500,331.617 116.500 L 332.667 116.500 332.667 117.550 C 332.667 118.863,332.804 119.000,334.117 119.000 L 335.167 119.000 335.167 119.967 C 335.167 121.172,335.328 121.333,336.533 121.333 L 337.500 121.333 337.500 122.383 C 337.500 123.696,337.637 123.833,338.950 123.833 L 340.000 123.833 340.000 124.883 C 340.000 126.196,340.137 126.333,341.450 126.333 L 342.500 126.333 342.500 127.399 C 342.500 128.635,342.538 128.667,344.014 128.667 L 345.000 128.667 345.000 129.653 C 345.000 131.128,345.032 131.167,346.268 131.167 L 347.333 131.167 347.333 132.217 C 347.333 133.530,347.470 133.667,348.783 133.667 L 349.833 133.667 349.833 134.730 C 349.833 136.219,349.733 136.182,353.605 136.129 C 356.779 136.085,356.919 136.069,356.965 135.748 C 356.992 135.560,357.285 135.267,357.631 135.081 C 357.974 134.898,358.362 134.512,358.500 134.217 C 358.637 133.924,358.900 133.662,359.083 133.634 C 359.273 133.605,359.438 133.433,359.466 133.235 C 359.496 133.030,359.752 132.775,360.093 132.612 C 360.438 132.448,360.781 132.105,360.946 131.760 C 361.108 131.419,361.363 131.162,361.569 131.133 C 361.766 131.105,361.938 130.939,361.967 130.750 C 361.995 130.567,362.257 130.304,362.551 130.167 C 362.848 130.027,363.231 129.641,363.417 129.292 C 363.617 128.917,363.873 128.667,364.057 128.667 C 364.226 128.667,364.403 128.519,364.450 128.339 C 364.497 128.159,364.781 127.867,365.082 127.690 C 365.382 127.513,365.762 127.140,365.926 126.862 C 366.090 126.584,366.361 126.321,366.529 126.277 C 366.696 126.234,366.834 126.060,366.834 125.891 C 366.834 125.706,367.084 125.450,367.459 125.250 C 367.822 125.056,368.182 124.693,368.318 124.383 C 368.457 124.069,368.696 123.829,368.902 123.800 C 369.107 123.770,369.270 123.607,369.300 123.402 C 369.329 123.196,369.569 122.957,369.883 122.818 C 370.193 122.682,370.556 122.322,370.750 121.959 C 370.950 121.584,371.206 121.334,371.391 121.334 C 371.560 121.334,371.734 121.196,371.777 121.029 C 371.821 120.861,372.084 120.590,372.362 120.426 C 372.640 120.262,373.013 119.882,373.190 119.582 C 373.367 119.281,373.659 118.997,373.839 118.950 C 374.020 118.903,374.167 118.722,374.167 118.546 C 374.167 118.348,374.383 118.125,374.745 117.953 C 375.063 117.801,375.495 117.416,375.704 117.097 C 375.912 116.778,376.215 116.483,376.375 116.441 C 376.535 116.399,376.667 116.219,376.667 116.041 C 376.667 115.827,376.883 115.620,377.304 115.430 C 377.759 115.225,378.001 114.978,378.148 114.571 C 378.291 114.176,378.459 114.000,378.693 114.000 C 378.879 114.000,379.068 113.869,379.112 113.708 C 379.157 113.548,379.431 113.265,379.722 113.081 C 380.012 112.896,380.400 112.465,380.583 112.123 C 380.783 111.751,381.040 111.501,381.224 111.500 C 381.393 111.500,381.570 111.353,381.617 111.173 C 381.664 110.992,381.948 110.700,382.248 110.523 C 382.549 110.346,382.929 109.974,383.093 109.696 C 383.257 109.418,383.528 109.155,383.696 109.111 C 383.978 109.037,384.000 108.783,384.000 105.632 C 384.000 101.742,384.033 101.833,382.633 101.833 L 381.667 101.833 381.667 100.867 C 381.667 99.645,381.513 99.500,380.217 99.500 L 379.167 99.500 379.167 98.450 C 379.167 97.137,379.030 97.000,377.717 97.000 L 376.667 97.000 376.667 95.950 C 376.667 94.638,376.529 94.500,375.224 94.500 L 374.182 94.500 374.133 93.375 L 374.083 92.250 372.958 92.201 L 371.833 92.151 371.833 91.109 C 371.833 89.804,371.695 89.667,370.383 89.667 L 369.333 89.667 369.333 88.617 C 369.333 87.304,369.196 87.167,367.883 87.167 L 366.833 87.167 366.833 86.117 C 366.833 84.820,366.689 84.667,365.467 84.667 L 364.500 84.667 364.500 83.700 C 364.500 82.478,364.346 82.333,363.050 82.333 L 362.000 82.333 362.000 81.283 C 362.000 79.970,361.863 79.833,360.550 79.833 L 359.500 79.833 359.500 78.783 C 359.500 77.472,359.362 77.333,358.058 77.333 L 357.015 77.333 356.966 76.208 L 356.917 75.083 355.799 75.034 L 354.681 74.985 354.632 73.791 C 354.587 72.675,354.556 72.590,354.167 72.491 L 353.750 72.384 354.160 72.317 C 354.431 72.273,354.603 72.109,354.667 71.834 C 354.722 71.600,354.907 71.392,355.091 71.359 C 355.536 71.277,355.931 70.901,356.165 70.337 C 356.273 70.078,356.504 69.827,356.680 69.781 C 356.856 69.735,357.000 69.597,357.000 69.474 C 357.001 69.351,357.282 69.100,357.625 68.917 C 357.974 68.731,358.361 68.348,358.500 68.051 C 358.637 67.757,358.900 67.495,359.083 67.467 C 359.277 67.438,359.438 67.266,359.468 67.058 C 359.497 66.851,359.715 66.618,359.981 66.508 C 360.236 66.402,360.625 66.024,360.847 65.667 C 361.069 65.311,361.400 64.996,361.583 64.968 C 361.777 64.938,361.938 64.766,361.968 64.556 C 361.999 64.335,362.245 64.088,362.601 63.919 C 362.950 63.754,363.293 63.414,363.456 63.072 C 363.626 62.715,363.848 62.500,364.046 62.500 C 364.222 62.500,364.403 62.354,364.450 62.173 C 364.497 61.992,364.790 61.695,365.101 61.512 C 365.412 61.328,365.784 60.931,365.928 60.630 C 366.144 60.178,366.368 60.023,367.209 59.749 C 368.129 59.449,368.266 59.343,368.607 58.667 C 369.058 57.774,369.588 57.167,369.917 57.167 C 370.273 57.167,371.333 56.175,371.333 55.842 C 371.333 55.396,371.835 54.919,372.707 54.535 C 373.175 54.328,373.560 54.029,373.651 53.801 C 373.734 53.590,373.894 53.173,374.005 52.875 C 374.166 52.445,374.301 52.333,374.664 52.333 C 375.292 52.333,375.951 51.772,376.088 51.123 C 376.214 50.522,376.890 49.833,377.353 49.833 C 377.737 49.833,378.304 49.243,378.615 48.517 C 378.920 47.807,379.140 47.587,379.851 47.282 C 380.576 46.971,381.167 46.404,381.167 46.019 C 381.167 45.557,381.856 44.881,382.456 44.755 C 383.113 44.616,383.667 43.956,383.667 43.311 C 383.667 43.048,383.742 42.833,383.833 42.833 C 384.088 42.833,384.056 36.123,383.800 35.867 C 383.690 35.757,383.168 35.667,382.641 35.667 L 381.682 35.667 381.633 34.542 L 381.583 33.417 380.375 33.368 L 379.167 33.319 379.167 32.276 C 379.167 30.971,379.028 30.833,377.717 30.833 L 376.667 30.833 376.667 29.783 C 376.667 28.470,376.530 28.333,375.217 28.333 L 374.167 28.333 374.167 27.347 C 374.167 25.872,374.135 25.833,372.899 25.833 L 371.833 25.833 371.833 24.867 C 371.833 23.645,371.680 23.500,370.383 23.500 L 369.333 23.500 369.333 22.450 C 369.333 21.137,369.196 21.000,367.883 21.000 L 366.833 21.000 366.833 19.950 C 366.833 18.655,366.688 18.500,365.474 18.500 L 364.515 18.500 364.466 17.375 L 364.417 16.250 363.208 16.201 L 362.000 16.152 362.000 15.109 C 362.000 13.804,361.862 13.667,360.550 13.667 L 359.500 13.667 359.500 12.617 C 359.500 11.304,359.363 11.167,358.050 11.167 L 357.000 11.167 357.000 10.180 C 357.000 8.563,357.230 8.667,353.649 8.667 C 349.908 8.667,349.833 8.698,349.833 10.250 L 349.833 11.167 348.917 11.167 C 347.671 11.167,347.333 11.504,347.333 12.750 L 347.333 13.667 346.458 13.669 C 345.233 13.673,345.112 13.791,345.031 15.072 L 344.961 16.167 343.903 16.167 C 342.658 16.167,342.500 16.334,342.500 17.656 L 342.500 18.500 341.583 18.500 C 340.337 18.500,340.000 18.837,340.000 20.083 L 340.000 21.000 339.083 21.000 C 337.837 21.000,337.500 21.337,337.500 22.583 L 337.500 23.500 336.609 23.500 C 335.456 23.500,335.167 23.796,335.167 24.971 L 335.167 25.833 334.250 25.833 C 333.004 25.833,332.667 26.171,332.667 27.417 L 332.667 28.333 331.750 28.333 C 330.504 28.333,330.167 28.671,330.167 29.917 L 330.167 30.833 329.322 30.833 C 327.996 30.833,327.833 30.989,327.833 32.256 L 327.833 33.333 326.756 33.333 C 325.489 33.333,325.333 33.496,325.333 34.822 L 325.333 35.667 324.417 35.667 C 323.171 35.667,322.833 36.004,322.833 37.250 L 322.833 38.167 321.917 38.167 C 320.673 38.167,320.344 38.498,320.303 39.792 C 320.274 40.724,320.271 40.716,320.178 39.500 L 320.083 38.250 318.958 38.201 L 317.833 38.151 317.833 37.109 C 317.833 35.806,317.694 35.667,316.391 35.667 L 315.349 35.667 315.299 34.542 L 315.250 33.417 314.042 33.368 L 312.833 33.319 312.833 32.276 C 312.833 30.988,312.687 30.833,311.467 30.833 L 310.500 30.833 310.500 29.783 C 310.500 28.470,310.363 28.333,309.050 28.333 L 308.000 28.333 308.000 27.283 C 308.000 25.970,307.863 25.833,306.550 25.833 L 305.500 25.833 305.500 24.867 C 305.500 23.645,305.346 23.500,304.050 23.500 L 303.000 23.500 303.000 22.514 C 303.000 21.038,302.968 21.000,301.732 21.000 L 300.667 21.000 300.667 19.950 C 300.667 18.638,300.529 18.500,299.224 18.500 L 298.182 18.500 298.133 17.375 L 298.083 16.250 296.875 16.201 L 295.667 16.152 295.667 15.109 C 295.667 13.821,295.520 13.667,294.300 13.667 L 293.333 13.667 293.333 12.617 C 293.333 11.304,293.196 11.167,291.883 11.167 L 290.833 11.167 290.833 10.117 C 290.833 9.522,290.747 8.980,290.633 8.867 C 290.379 8.612,284.392 8.594,283.958 8.847 " stroke="none" fill="#ffffff" fill-rule="evenodd"></path><path id="path2" d="M16.244 8.875 C 16.200 8.990,16.184 37.658,16.207 72.583 L 16.250 136.083 38.167 136.083 L 60.083 136.083 60.126 122.625 L 60.169 109.167 89.397 109.167 C 113.844 109.167,118.657 109.130,118.814 108.940 C 118.953 108.773,118.991 99.218,118.959 72.509 L 118.917 36.304 118.523 35.985 C 118.256 35.769,117.869 35.667,117.315 35.667 L 116.500 35.667 116.500 35.021 C 116.500 33.446,116.415 33.333,115.229 33.333 L 114.167 33.333 114.167 32.449 C 114.167 31.212,113.932 30.957,112.708 30.869 L 111.704 30.796 111.633 29.812 C 111.544 28.589,111.411 28.456,110.188 28.367 L 109.204 28.296 109.131 27.292 C 109.043 26.068,108.788 25.833,107.551 25.833 L 106.667 25.833 106.667 24.829 C 106.667 23.682,106.452 23.500,105.093 23.500 L 104.373 23.500 104.301 22.498 C 104.211 21.254,104.081 21.123,102.854 21.034 L 101.871 20.963 101.800 19.979 C 101.711 18.752,101.579 18.622,100.336 18.532 L 99.333 18.460 99.333 17.741 C 99.333 16.382,99.152 16.167,98.004 16.167 L 97.000 16.167 97.000 15.282 C 97.000 14.045,96.765 13.790,95.541 13.702 L 94.537 13.629 94.466 12.646 C 94.378 11.422,94.245 11.289,93.021 11.200 L 92.037 11.129 91.965 10.126 C 91.912 9.396,91.807 9.060,91.581 8.894 C 91.139 8.571,16.366 8.552,16.244 8.875 M185.601 8.930 C 185.546 9.075,185.500 9.629,185.500 10.160 L 185.500 11.125 184.575 11.202 C 183.182 11.318,183.103 11.457,183.002 13.962 L 182.917 16.083 181.750 16.167 L 180.583 16.250 180.534 17.357 L 180.486 18.464 179.701 18.582 C 178.207 18.806,178.002 19.202,178.001 21.875 L 178.000 23.500 177.020 23.500 C 175.828 23.500,175.701 23.631,175.634 24.922 L 175.583 25.917 175.000 25.963 C 173.614 26.075,173.343 26.540,173.211 29.038 L 173.117 30.833 172.154 30.833 C 170.894 30.833,170.667 31.060,170.667 32.316 L 170.667 33.275 169.888 33.512 C 168.675 33.883,168.437 34.335,168.360 36.424 L 168.296 38.167 167.324 38.167 C 166.080 38.167,165.833 38.462,165.833 39.954 C 165.833 40.758,165.777 41.000,165.591 41.000 C 165.036 41.000,164.500 41.423,164.137 42.146 C 163.924 42.570,163.656 42.977,163.542 43.050 C 163.408 43.135,163.333 43.593,163.333 44.321 L 163.333 45.459 162.408 45.535 C 161.115 45.643,160.953 45.857,160.833 47.623 C 160.724 49.227,159.992 50.385,159.000 50.525 C 158.608 50.580,158.580 50.651,158.534 51.708 L 158.485 52.833 157.934 52.833 C 156.305 52.833,156.002 53.349,156.001 56.125 L 156.000 57.833 155.014 57.833 C 153.540 57.833,153.500 57.867,153.500 59.091 L 153.500 60.146 152.744 60.260 C 151.327 60.472,151.011 61.098,151.004 63.708 L 151.000 65.167 150.006 65.167 C 148.822 65.167,148.667 65.346,148.667 66.717 L 148.667 67.623 147.959 67.718 C 146.718 67.884,146.167 69.025,146.167 71.425 L 146.167 72.500 145.250 72.500 C 143.987 72.500,143.667 72.832,143.667 74.140 L 143.667 75.114 143.027 75.306 C 141.879 75.649,141.333 76.740,141.333 78.688 L 141.333 79.833 140.449 79.833 C 139.119 79.833,138.932 80.044,138.860 81.629 C 138.800 82.948,138.798 82.955,138.238 83.222 C 137.885 83.391,137.586 83.705,137.435 84.065 C 137.275 84.449,137.066 84.658,136.806 84.695 C 136.445 84.746,136.413 84.837,136.368 85.936 L 136.320 87.121 135.383 87.218 C 134.002 87.361,133.935 87.479,133.835 89.962 L 133.750 92.083 132.667 92.167 L 131.583 92.250 131.534 93.360 L 131.485 94.471 130.672 94.583 C 129.240 94.779,129.011 95.244,129.004 97.958 L 129.000 99.500 128.012 99.500 C 126.717 99.500,126.500 99.717,126.500 101.012 C 126.500 101.938,126.475 102.000,126.108 102.000 C 124.466 102.000,124.167 102.626,124.167 106.058 C 124.167 109.012,124.168 109.015,125.575 109.131 L 126.463 109.205 126.533 110.182 C 126.621 111.388,126.581 111.351,127.907 111.458 L 129.000 111.546 129.000 112.408 C 129.000 113.620,129.240 113.877,130.456 113.965 L 131.457 114.037 131.544 115.111 C 131.648 116.417,131.613 116.379,132.818 116.467 L 133.796 116.537 133.867 117.521 C 133.956 118.748,134.087 118.878,135.331 118.968 L 136.333 119.040 136.333 119.822 C 136.333 120.951,136.590 121.211,137.792 121.298 L 138.796 121.371 138.869 122.374 C 138.957 123.598,139.212 123.833,140.449 123.833 L 141.333 123.833 141.333 124.921 C 141.333 126.162,141.525 126.333,142.907 126.333 L 143.627 126.333 143.699 127.330 C 143.787 128.556,143.748 128.518,145.056 128.623 L 146.130 128.709 146.201 129.690 C 146.289 130.911,146.422 131.044,147.646 131.133 L 148.629 131.204 148.702 132.208 C 148.789 133.410,149.049 133.667,150.178 133.667 L 150.960 133.667 151.032 134.669 C 151.072 135.221,151.198 135.764,151.311 135.877 C 151.703 136.269,226.039 136.168,226.473 135.775 C 226.694 135.574,226.852 135.157,226.924 134.584 L 227.034 133.701 227.917 133.591 C 229.003 133.455,229.313 133.140,229.443 132.042 L 229.542 131.204 230.395 131.091 C 231.564 130.936,231.833 130.653,231.833 129.579 L 231.833 128.710 232.818 128.598 C 233.982 128.467,234.109 128.345,234.258 127.225 L 234.371 126.375 235.208 126.276 C 236.307 126.146,236.622 125.836,236.757 124.750 L 236.867 123.867 237.750 123.757 C 238.836 123.621,239.146 123.307,239.276 122.206 L 239.376 121.366 240.260 121.256 C 241.318 121.124,241.445 120.994,241.591 119.892 L 241.704 119.042 242.542 118.943 C 243.640 118.813,243.955 118.503,244.091 117.417 L 244.201 116.534 245.084 116.424 C 246.169 116.288,246.479 115.973,246.609 114.875 L 246.709 114.037 247.562 113.924 C 248.731 113.769,249.000 113.486,249.000 112.412 L 249.000 111.543 249.985 111.432 C 251.142 111.301,251.262 111.188,251.424 110.083 C 251.561 109.146,251.693 109.006,252.440 109.003 C 253.215 108.999,253.642 108.550,253.829 107.541 C 253.976 106.752,253.960 106.338,253.743 105.238 C 253.668 104.855,252.794 103.899,252.010 103.340 C 251.510 102.985,251.500 102.949,251.500 101.572 C 251.500 99.787,251.281 99.500,249.917 99.500 L 249.000 99.500 249.000 98.354 C 249.000 96.564,248.369 95.369,247.225 94.992 C 246.672 94.809,246.667 94.797,246.664 93.779 C 246.661 92.392,246.563 92.280,245.285 92.199 L 244.213 92.131 244.124 90.507 C 243.998 88.235,243.608 87.550,242.340 87.380 L 241.667 87.289 241.667 86.300 C 241.667 84.848,241.521 84.667,240.351 84.667 L 239.381 84.667 239.294 82.835 C 239.179 80.405,239.043 80.191,237.458 79.924 L 236.833 79.818 236.833 78.776 C 236.833 77.474,236.693 77.333,235.401 77.333 L 234.368 77.333 234.309 75.338 C 234.239 72.969,234.096 72.722,232.707 72.557 L 231.847 72.455 231.799 71.269 L 231.750 70.083 230.667 70.000 L 229.583 69.917 229.500 67.880 C 229.401 65.468,229.313 65.317,227.925 65.202 L 227.000 65.125 227.000 63.985 C 227.000 63.062,226.943 62.815,226.703 62.686 C 226.540 62.599,226.301 62.259,226.172 61.930 C 226.003 61.500,225.741 61.238,225.237 60.994 L 224.536 60.654 224.474 59.422 C 224.399 57.940,224.412 57.956,223.163 57.865 L 222.167 57.793 222.167 56.677 C 222.167 54.503,221.543 53.337,220.251 53.095 L 219.667 52.985 219.667 52.006 C 219.667 50.530,219.641 50.500,218.340 50.500 L 217.217 50.500 217.122 48.704 C 216.990 46.207,216.719 45.741,215.333 45.630 L 214.750 45.583 214.667 44.500 C 214.556 43.063,214.499 43.000,213.323 43.000 L 212.333 43.000 212.332 41.458 C 212.331 38.872,212.118 38.471,210.625 38.248 L 209.833 38.129 209.833 37.085 C 209.833 35.821,209.716 35.701,208.411 35.634 L 207.417 35.583 207.333 33.547 C 207.235 31.135,207.146 30.984,205.758 30.869 L 204.833 30.792 204.833 29.563 C 204.833 28.480,204.797 28.333,204.527 28.333 C 204.358 28.333,204.135 28.146,204.031 27.918 C 203.927 27.690,203.543 27.296,203.177 27.043 L 202.513 26.583 202.506 25.407 C 202.498 23.845,202.326 23.628,201.022 23.534 L 200.000 23.460 200.000 22.394 C 200.000 21.808,199.937 21.199,199.860 21.039 C 199.782 20.880,199.545 20.390,199.332 19.950 C 198.996 19.256,198.851 19.125,198.223 18.957 L 197.500 18.764 197.500 17.788 C 197.500 16.349,197.352 16.167,196.186 16.167 L 195.217 16.167 195.118 14.428 C 194.982 12.014,194.529 11.333,193.058 11.333 C 192.688 11.333,192.667 11.276,192.667 10.262 C 192.667 8.637,192.736 8.667,188.923 8.667 C 186.140 8.667,185.689 8.702,185.601 8.930 M283.958 8.847 C 283.728 8.981,283.667 9.244,283.667 10.092 L 283.667 11.167 282.676 11.167 C 281.451 11.167,281.167 11.472,281.167 12.787 L 281.167 13.667 280.250 13.667 C 279.004 13.667,278.667 14.004,278.667 15.250 L 278.667 16.167 277.589 16.167 C 276.322 16.167,276.167 16.329,276.167 17.656 L 276.167 18.500 275.259 18.500 C 274.126 18.500,273.833 18.833,273.833 20.120 L 273.833 21.000 272.917 21.000 C 271.671 21.000,271.333 21.337,271.333 22.583 L 271.333 23.500 270.454 23.500 C 269.166 23.500,268.833 23.793,268.833 24.926 L 268.833 25.833 267.917 25.833 C 266.671 25.833,266.333 26.171,266.333 27.417 L 266.333 28.333 265.426 28.333 C 264.293 28.333,264.000 28.666,264.000 29.954 L 264.000 30.833 263.120 30.833 C 261.805 30.833,261.500 31.118,261.500 32.343 L 261.500 33.333 260.423 33.333 C 259.155 33.333,259.000 33.496,259.000 34.822 L 259.000 35.667 258.156 35.667 C 256.611 35.667,256.667 35.527,256.667 39.423 L 256.667 42.833 257.833 42.833 L 259.000 42.833 259.000 43.883 C 259.000 45.196,259.137 45.333,260.450 45.333 L 261.500 45.333 261.500 46.383 C 261.500 47.696,261.637 47.833,262.950 47.833 L 264.000 47.833 264.000 48.883 C 264.000 50.180,264.145 50.333,265.367 50.333 L 266.333 50.333 266.333 51.300 C 266.333 52.522,266.487 52.667,267.783 52.667 L 268.833 52.667 268.833 53.717 C 268.833 55.030,268.970 55.167,270.283 55.167 L 271.333 55.167 271.333 56.217 C 271.333 57.528,271.471 57.667,272.776 57.667 L 273.818 57.667 273.867 58.792 L 273.917 59.917 275.042 59.966 L 276.167 60.015 276.167 61.058 C 276.167 62.362,276.305 62.500,277.617 62.500 L 278.667 62.500 278.667 63.550 C 278.667 64.863,278.804 65.000,280.117 65.000 L 281.167 65.000 281.167 66.050 C 281.167 67.362,281.304 67.500,282.609 67.500 L 283.651 67.500 283.701 68.625 L 283.750 69.750 284.875 69.799 L 286.000 69.849 286.000 70.891 C 286.000 72.194,286.135 72.327,287.492 72.360 L 288.583 72.386 287.452 72.485 C 286.117 72.601,286.006 72.721,286.003 74.042 L 286.000 75.000 285.097 75.000 C 283.714 75.000,283.667 75.042,283.667 76.268 L 283.667 77.333 282.679 77.333 C 281.384 77.333,281.167 77.550,281.167 78.845 L 281.167 79.833 280.179 79.833 C 278.884 79.833,278.667 80.050,278.667 81.345 L 278.667 82.333 277.787 82.333 C 276.500 82.333,276.167 82.626,276.167 83.759 L 276.167 84.667 275.259 84.667 C 274.126 84.667,273.833 85.000,273.833 86.287 L 273.833 87.167 272.917 87.167 C 271.671 87.167,271.333 87.504,271.333 88.750 L 271.333 89.667 270.417 89.667 C 269.177 89.667,268.833 90.006,268.833 91.231 L 268.833 92.128 267.739 92.198 C 266.458 92.279,266.339 92.400,266.336 93.625 L 266.333 94.500 265.426 94.500 C 264.293 94.500,264.000 94.833,264.000 96.120 L 264.000 97.000 263.083 97.000 C 261.837 97.000,261.500 97.337,261.500 98.583 L 261.500 99.500 260.620 99.500 C 259.333 99.500,259.000 99.793,259.000 100.926 L 259.000 101.833 258.115 101.833 C 256.620 101.833,256.653 101.744,256.705 105.667 L 256.750 109.083 257.875 109.133 L 259.000 109.182 259.000 110.240 C 259.000 111.467,259.040 111.500,260.514 111.500 L 261.500 111.500 261.500 112.550 C 261.500 113.863,261.637 114.000,262.950 114.000 L 264.000 114.000 264.000 115.050 C 264.000 116.346,264.145 116.500,265.367 116.500 L 266.333 116.500 266.333 117.550 C 266.333 118.863,266.470 119.000,267.783 119.000 L 268.833 119.000 268.833 119.967 C 268.833 121.189,268.987 121.333,270.283 121.333 L 271.333 121.333 271.333 122.383 C 271.333 123.696,271.470 123.833,272.783 123.833 L 273.833 123.833 273.833 124.883 C 273.833 126.180,273.978 126.333,275.200 126.333 L 276.167 126.333 276.167 127.399 C 276.167 128.635,276.205 128.667,277.680 128.667 L 278.667 128.667 278.667 129.717 C 278.667 131.030,278.804 131.167,280.117 131.167 L 281.167 131.167 281.167 132.217 C 281.167 133.528,281.304 133.667,282.609 133.667 L 283.652 133.667 283.701 134.875 L 283.750 136.083 287.250 136.083 C 290.657 136.083,290.751 136.074,290.799 135.740 C 290.826 135.551,291.073 135.263,291.348 135.101 C 291.623 134.938,292.014 134.552,292.216 134.243 C 292.418 133.933,292.733 133.658,292.917 133.632 C 293.117 133.603,293.271 133.432,293.304 133.206 C 293.338 132.965,293.586 132.711,293.988 132.506 C 294.358 132.318,294.703 131.980,294.823 131.691 C 294.935 131.420,295.171 131.161,295.347 131.115 C 295.534 131.066,295.667 130.886,295.667 130.682 C 295.667 130.453,295.773 130.333,295.978 130.333 C 296.463 130.333,297.113 129.728,297.224 129.172 C 297.298 128.800,297.418 128.667,297.678 128.667 C 297.883 128.667,298.065 128.536,298.113 128.354 C 298.158 128.181,298.375 127.958,298.596 127.858 C 298.817 127.757,299.204 127.378,299.457 127.015 C 299.710 126.652,300.067 126.332,300.250 126.303 C 300.433 126.274,300.607 126.100,300.636 125.917 C 300.665 125.733,300.986 125.376,301.349 125.124 C 301.711 124.871,302.091 124.483,302.191 124.263 C 302.292 124.042,302.515 123.825,302.687 123.780 C 302.866 123.733,303.000 123.550,303.000 123.352 C 303.000 123.112,303.141 122.973,303.458 122.897 C 304.050 122.757,304.420 122.429,304.672 121.821 C 304.783 121.553,304.984 121.333,305.119 121.333 C 305.254 121.333,305.401 121.194,305.445 121.025 C 305.490 120.855,305.781 120.595,306.092 120.446 C 306.448 120.276,306.747 119.963,306.898 119.601 C 307.059 119.217,307.267 119.009,307.528 118.972 C 307.774 118.937,307.935 118.787,307.967 118.565 C 307.995 118.371,308.200 118.129,308.424 118.027 C 308.648 117.925,309.037 117.545,309.290 117.182 C 309.543 116.819,309.900 116.498,310.083 116.469 C 310.282 116.438,310.438 116.264,310.470 116.039 C 310.504 115.798,310.753 115.545,311.155 115.339 C 311.533 115.147,311.870 114.814,311.996 114.509 C 312.112 114.229,312.318 114.000,312.452 114.000 C 312.587 114.000,312.735 113.856,312.781 113.680 C 312.827 113.504,313.085 113.269,313.355 113.158 C 313.932 112.919,314.500 112.250,314.500 111.811 C 314.500 111.606,314.620 111.500,314.849 111.500 C 315.053 111.500,315.233 111.367,315.281 111.180 C 315.327 111.004,315.567 110.777,315.813 110.675 C 316.060 110.573,316.443 110.195,316.666 109.835 C 316.888 109.475,317.223 109.159,317.410 109.132 C 317.599 109.105,317.773 108.935,317.803 108.750 C 317.832 108.567,318.152 108.210,318.515 107.957 C 318.878 107.704,319.260 107.310,319.364 107.082 C 319.468 106.854,319.691 106.667,319.860 106.667 C 320.079 106.667,320.172 106.535,320.186 106.208 C 320.201 105.857,320.225 105.828,320.289 106.083 C 320.411 106.574,320.638 106.661,321.792 106.664 L 322.833 106.667 322.833 107.717 C 322.833 109.030,322.970 109.167,324.283 109.167 L 325.333 109.167 325.333 110.232 C 325.333 111.467,325.373 111.500,326.840 111.500 L 327.819 111.500 327.868 112.708 L 327.917 113.917 329.042 113.966 L 330.167 114.015 330.167 115.058 C 330.167 116.362,330.305 116.500,331.617 116.500 L 332.667 116.500 332.667 117.550 C 332.667 118.863,332.804 119.000,334.117 119.000 L 335.167 119.000 335.167 119.967 C 335.167 121.172,335.328 121.333,336.533 121.333 L 337.500 121.333 337.500 122.383 C 337.500 123.696,337.637 123.833,338.950 123.833 L 340.000 123.833 340.000 124.883 C 340.000 126.196,340.137 126.333,341.450 126.333 L 342.500 126.333 342.500 127.399 C 342.500 128.635,342.538 128.667,344.014 128.667 L 345.000 128.667 345.000 129.653 C 345.000 131.128,345.032 131.167,346.268 131.167 L 347.333 131.167 347.333 132.217 C 347.333 133.530,347.470 133.667,348.783 133.667 L 349.833 133.667 349.833 134.730 C 349.833 136.219,349.733 136.182,353.605 136.129 C 356.779 136.085,356.919 136.069,356.965 135.748 C 356.992 135.560,357.285 135.267,357.631 135.081 C 357.974 134.898,358.362 134.512,358.500 134.217 C 358.637 133.924,358.900 133.662,359.083 133.634 C 359.273 133.605,359.438 133.433,359.466 133.235 C 359.496 133.030,359.752 132.775,360.093 132.612 C 360.438 132.448,360.781 132.105,360.946 131.760 C 361.108 131.419,361.363 131.162,361.569 131.133 C 361.766 131.105,361.938 130.939,361.967 130.750 C 361.995 130.567,362.257 130.304,362.551 130.167 C 362.848 130.027,363.231 129.641,363.417 129.292 C 363.617 128.917,363.873 128.667,364.057 128.667 C 364.226 128.667,364.403 128.519,364.450 128.339 C 364.497 128.159,364.781 127.867,365.082 127.690 C 365.382 127.513,365.762 127.140,365.926 126.862 C 366.090 126.584,366.361 126.321,366.529 126.277 C 366.696 126.234,366.834 126.060,366.834 125.891 C 366.834 125.706,367.084 125.450,367.459 125.250 C 367.822 125.056,368.182 124.693,368.318 124.383 C 368.457 124.069,368.696 123.829,368.902 123.800 C 369.107 123.770,369.270 123.607,369.300 123.402 C 369.329 123.196,369.569 122.957,369.883 122.818 C 370.193 122.682,370.556 122.322,370.750 121.959 C 370.950 121.584,371.206 121.334,371.391 121.334 C 371.560 121.334,371.734 121.196,371.777 121.029 C 371.821 120.861,372.084 120.590,372.362 120.426 C 372.640 120.262,373.013 119.882,373.190 119.582 C 373.367 119.281,373.659 118.997,373.839 118.950 C 374.020 118.903,374.167 118.722,374.167 118.546 C 374.167 118.348,374.383 118.125,374.745 117.953 C 375.063 117.801,375.495 117.416,375.704 117.097 C 375.912 116.778,376.215 116.483,376.375 116.441 C 376.535 116.399,376.667 116.219,376.667 116.041 C 376.667 115.827,376.883 115.620,377.304 115.430 C 377.759 115.225,378.001 114.978,378.148 114.571 C 378.291 114.176,378.459 114.000,378.693 114.000 C 378.879 114.000,379.068 113.869,379.112 113.708 C 379.157 113.548,379.431 113.265,379.722 113.081 C 380.012 112.896,380.400 112.465,380.583 112.123 C 380.783 111.751,381.040 111.501,381.224 111.500 C 381.393 111.500,381.570 111.353,381.617 111.173 C 381.664 110.992,381.948 110.700,382.248 110.523 C 382.549 110.346,382.929 109.974,383.093 109.696 C 383.257 109.418,383.528 109.155,383.696 109.111 C 383.978 109.037,384.000 108.783,384.000 105.632 C 384.000 101.742,384.033 101.833,382.633 101.833 L 381.667 101.833 381.667 100.867 C 381.667 99.645,381.513 99.500,380.217 99.500 L 379.167 99.500 379.167 98.450 C 379.167 97.137,379.030 97.000,377.717 97.000 L 376.667 97.000 376.667 95.950 C 376.667 94.638,376.529 94.500,375.224 94.500 L 374.182 94.500 374.133 93.375 L 374.083 92.250 372.958 92.201 L 371.833 92.151 371.833 91.109 C 371.833 89.804,371.695 89.667,370.383 89.667 L 369.333 89.667 369.333 88.617 C 369.333 87.304,369.196 87.167,367.883 87.167 L 366.833 87.167 366.833 86.117 C 366.833 84.820,366.689 84.667,365.467 84.667 L 364.500 84.667 364.500 83.700 C 364.500 82.478,364.346 82.333,363.050 82.333 L 362.000 82.333 362.000 81.283 C 362.000 79.970,361.863 79.833,360.550 79.833 L 359.500 79.833 359.500 78.783 C 359.500 77.472,359.362 77.333,358.058 77.333 L 357.015 77.333 356.966 76.208 L 356.917 75.083 355.799 75.034 L 354.681 74.985 354.632 73.791 C 354.587 72.675,354.556 72.590,354.167 72.491 L 353.750 72.384 354.160 72.317 C 354.431 72.273,354.603 72.109,354.667 71.834 C 354.722 71.600,354.907 71.392,355.091 71.359 C 355.536 71.277,355.931 70.901,356.165 70.337 C 356.273 70.078,356.504 69.827,356.680 69.781 C 356.856 69.735,357.000 69.597,357.000 69.474 C 357.001 69.351,357.282 69.100,357.625 68.917 C 357.974 68.731,358.361 68.348,358.500 68.051 C 358.637 67.757,358.900 67.495,359.083 67.467 C 359.277 67.438,359.438 67.266,359.468 67.058 C 359.497 66.851,359.715 66.618,359.981 66.508 C 360.236 66.402,360.625 66.024,360.847 65.667 C 361.069 65.311,361.400 64.996,361.583 64.968 C 361.777 64.938,361.938 64.766,361.968 64.556 C 361.999 64.335,362.245 64.088,362.601 63.919 C 362.950 63.754,363.293 63.414,363.456 63.072 C 363.626 62.715,363.848 62.500,364.046 62.500 C 364.222 62.500,364.403 62.354,364.450 62.173 C 364.497 61.992,364.790 61.695,365.101 61.512 C 365.412 61.328,365.784 60.931,365.928 60.630 C 366.144 60.178,366.368 60.023,367.209 59.749 C 368.129 59.449,368.266 59.343,368.607 58.667 C 369.058 57.774,369.588 57.167,369.917 57.167 C 370.273 57.167,371.333 56.175,371.333 55.842 C 371.333 55.396,371.835 54.919,372.707 54.535 C 373.175 54.328,373.560 54.029,373.651 53.801 C 373.734 53.590,373.894 53.173,374.005 52.875 C 374.166 52.445,374.301 52.333,374.664 52.333 C 375.292 52.333,375.951 51.772,376.088 51.123 C 376.214 50.522,376.890 49.833,377.353 49.833 C 377.737 49.833,378.304 49.243,378.615 48.517 C 378.920 47.807,379.140 47.587,379.851 47.282 C 380.576 46.971,381.167 46.404,381.167 46.019 C 381.167 45.557,381.856 44.881,382.456 44.755 C 383.113 44.616,383.667 43.956,383.667 43.311 C 383.667 43.048,383.742 42.833,383.833 42.833 C 384.088 42.833,384.056 36.123,383.800 35.867 C 383.690 35.757,383.168 35.667,382.641 35.667 L 381.682 35.667 381.633 34.542 L 381.583 33.417 380.375 33.368 L 379.167 33.319 379.167 32.276 C 379.167 30.971,379.028 30.833,377.717 30.833 L 376.667 30.833 376.667 29.783 C 376.667 28.470,376.530 28.333,375.217 28.333 L 374.167 28.333 374.167 27.347 C 374.167 25.872,374.135 25.833,372.899 25.833 L 371.833 25.833 371.833 24.867 C 371.833 23.645,371.680 23.500,370.383 23.500 L 369.333 23.500 369.333 22.450 C 369.333 21.137,369.196 21.000,367.883 21.000 L 366.833 21.000 366.833 19.950 C 366.833 18.655,366.688 18.500,365.474 18.500 L 364.515 18.500 364.466 17.375 L 364.417 16.250 363.208 16.201 L 362.000 16.152 362.000 15.109 C 362.000 13.804,361.862 13.667,360.550 13.667 L 359.500 13.667 359.500 12.617 C 359.500 11.304,359.363 11.167,358.050 11.167 L 357.000 11.167 357.000 10.180 C 357.000 8.563,357.230 8.667,353.649 8.667 C 349.908 8.667,349.833 8.698,349.833 10.250 L 349.833 11.167 348.917 11.167 C 347.671 11.167,347.333 11.504,347.333 12.750 L 347.333 13.667 346.458 13.669 C 345.233 13.673,345.112 13.791,345.031 15.072 L 344.961 16.167 343.903 16.167 C 342.658 16.167,342.500 16.334,342.500 17.656 L 342.500 18.500 341.583 18.500 C 340.337 18.500,340.000 18.837,340.000 20.083 L 340.000 21.000 339.083 21.000 C 337.837 21.000,337.500 21.337,337.500 22.583 L 337.500 23.500 336.609 23.500 C 335.456 23.500,335.167 23.796,335.167 24.971 L 335.167 25.833 334.250 25.833 C 333.004 25.833,332.667 26.171,332.667 27.417 L 332.667 28.333 331.750 28.333 C 330.504 28.333,330.167 28.671,330.167 29.917 L 330.167 30.833 329.322 30.833 C 327.996 30.833,327.833 30.989,327.833 32.256 L 327.833 33.333 326.756 33.333 C 325.489 33.333,325.333 33.496,325.333 34.822 L 325.333 35.667 324.417 35.667 C 323.171 35.667,322.833 36.004,322.833 37.250 L 322.833 38.167 321.917 38.167 C 320.673 38.167,320.344 38.498,320.303 39.792 C 320.274 40.724,320.271 40.716,320.178 39.500 L 320.083 38.250 318.958 38.201 L 317.833 38.151 317.833 37.109 C 317.833 35.806,317.694 35.667,316.391 35.667 L 315.349 35.667 315.299 34.542 L 315.250 33.417 314.042 33.368 L 312.833 33.319 312.833 32.276 C 312.833 30.988,312.687 30.833,311.467 30.833 L 310.500 30.833 310.500 29.783 C 310.500 28.470,310.363 28.333,309.050 28.333 L 308.000 28.333 308.000 27.283 C 308.000 25.970,307.863 25.833,306.550 25.833 L 305.500 25.833 305.500 24.867 C 305.500 23.645,305.346 23.500,304.050 23.500 L 303.000 23.500 303.000 22.514 C 303.000 21.038,302.968 21.000,301.732 21.000 L 300.667 21.000 300.667 19.950 C 300.667 18.638,300.529 18.500,299.224 18.500 L 298.182 18.500 298.133 17.375 L 298.083 16.250 296.875 16.201 L 295.667 16.152 295.667 15.109 C 295.667 13.821,295.520 13.667,294.300 13.667 L 293.333 13.667 293.333 12.617 C 293.333 11.304,293.196 11.167,291.883 11.167 L 290.833 11.167 290.833 10.117 C 290.833 9.522,290.747 8.980,290.633 8.867 C 290.379 8.612,284.392 8.594,283.958 8.847 " stroke="none" fill="#ffffff" fill-rule="evenodd"></path></g></svg>